<?xml version="1.0" encoding="UTF-8" standalone="no"?>
<!-- Created with Inkscape (http://www.inkscape.org/) -->

<svg
   xmlns:dc="http://purl.org/dc/elements/1.1/"
   xmlns:cc="http://creativecommons.org/ns#"
   xmlns:rdf="http://www.w3.org/1999/02/22-rdf-syntax-ns#"
   xmlns:svg="http://www.w3.org/2000/svg"
   xmlns="http://www.w3.org/2000/svg"
   xmlns:sodipodi="http://sodipodi.sourceforge.net/DTD/sodipodi-0.dtd"
   xmlns:inkscape="http://www.inkscape.org/namespaces/inkscape"
   version="1.1"
   id="svg3713"
   width="187.52"
   height="214.72"
   viewBox="0 0 187.52 214.72"
   sodipodi:docname="QST-INC-logo.svg"
   inkscape:version="0.92.4 (5da689c313, 2019-01-14)">
  <metadata
     id="metadata3719">
    <rdf:RDF>
      <cc:Work
         rdf:about="">
        <dc:format>image/svg+xml</dc:format>
        <dc:type
           rdf:resource="http://purl.org/dc/dcmitype/StillImage" />
        <dc:title></dc:title>
      </cc:Work>
    </rdf:RDF>
  </metadata>
  <defs
     id="defs3717" />
  <sodipodi:namedview
     pagecolor="#ffffff"
     bordercolor="#666666"
     borderopacity="1"
     objecttolerance="10"
     gridtolerance="10"
     guidetolerance="10"
     inkscape:pageopacity="0"
     inkscape:pageshadow="2"
     inkscape:window-width="1920"
     inkscape:window-height="1001"
     id="namedview3715"
     showgrid="false"
     inkscape:pagecheckerboard="true"
     inkscape:zoom="3.7630402"
     inkscape:cx="93.760002"
     inkscape:cy="117.9897"
     inkscape:window-x="-9"
     inkscape:window-y="-9"
     inkscape:window-maximized="1"
     inkscape:current-layer="svg3713" />
  <path fill="#ffffff"
     d="m 141.44,213.85877 c -6.50972,-1.15267 -14.71553,-4.30758 -22.31076,-8.57786 -8.01296,-4.50515 -14.81996,-9.27608 -28.08924,-19.68739 -9.996141,-7.84314 -12.259222,-9.21826 -17.376749,-10.55867 -8.545318,-2.23823 -16.911005,-0.3716 -28.676643,6.39861 -4.511389,2.59595 -6.08264,3.20654 -8.251456,3.20654 -3.010534,0 -4.314061,-2.5019 -2.824634,-5.42142 0.578861,-1.13465 0.768944,-1.25462 2.32,-1.46427 6.377303,-0.86196 16.072394,-6.82541 28.489482,-17.52387 2.244,-1.93341 4.078954,-3.6042 4.077677,-3.71287 -0.0013,-0.10866 -1.693277,-0.53267 -3.76,-0.94223 -4.504714,-0.8927 -12.755408,-3.57252 -17.265159,-5.60771 -9.1871,-4.14602 -16.645647,-9.2079 -23.880933,-16.20722 C 16.80976,126.90955 12.009172,120.35756 7.8306749,111.84 2.5174806,101.00944 0.18851992,90.951056 0.19897887,78.88 0.20948593,66.753411 2.5335556,56.695373 7.8149117,45.92 20.069931,20.916495 44.24407,4.3053581 73.76,0.60616557 c 4.123498,-0.51679258 15.716502,-0.51679258 19.84,0 C 123.33398,4.3326861 147.70859,21.234922 159.86973,46.56 c 11.07832,23.070141 9.59552,50.043907 -3.95525,71.95035 -5.4577,8.82301 -13.80596,17.59269 -22.50853,23.64474 -12.89451,8.96725 -28.70011,14.42166 -43.96595,15.17237 -4.09047,0.20115 -4.206426,0.22773 -6.93767,1.59055 -4.915626,2.45276 -14.888455,8.32253 -14.611191,8.5998 0.06657,0.0666 1.414301,-5e-5 2.994951,-0.14805 3.518307,-0.32942 8.968214,0.0718 13.1779,0.97008 7.297021,1.55713 12.947312,3.49234 30.97601,10.6092 6.688,2.6401 14.2953,5.51614 16.9051,6.3912 11.63858,3.90236 21.35246,4.65681 30.4019,2.36123 5.39384,-1.36826 9.91435,-3.66719 17.28267,-8.78917 4.8137,-3.34618 6.82606,-3.72746 7.58212,-1.43658 0.74604,2.26054 0.28463,4.13633 -2.32063,9.43408 -7.79442,15.84977 -17.75512,24.82259 -30.01116,27.03469 -3.13613,0.56605 -10.00664,0.52223 -13.44,-0.0857 z M 66.026554,150.61472 C 64.647949,149.32482 61.504,146.46579 59.04,144.26133 51.010509,137.07761 45.927728,131.43099 42.61872,126.01843 41.34007,123.92693 39.68,120.81404 39.68,120.50787 c 0,-0.0844 0.827856,0.13143 1.83968,0.47954 5.087238,1.75027 12.204467,2.5353 17.04032,1.87955 2.162042,-0.29318 8.400173,-0.42102 21.6,-0.44265 13.815619,-0.0227 18.78495,-0.12987 19.44,-0.41945 0.70894,-0.3134 0.88,-0.59863 0.88,-1.46734 0,-1.50807 -0.727862,-1.99935 -3.57145,-2.4106 -5.095657,-0.73695 -7.87918,-2.46432 -9.516124,-5.90542 -1.916183,-4.0281 -1.952605,-4.6588 -1.95064,-33.77685 0.0013,-16.71201 0.120019,-26.870308 0.323046,-27.60121 0.428458,-1.54247 1.563987,-2.710045 3.075901,-3.162701 0.681597,-0.204064 3.347094,-0.450758 5.923328,-0.548208 5.294589,-0.200278 6.704739,0.08898 8.853989,1.81616 1.87901,1.510013 2.50479,2.834016 3.8931,8.236909 0.19017,0.74008 0.56824,1.56808 0.84016,1.84 0.75441,0.754413 1.95795,0.610362 2.55853,-0.306224 0.54738,-0.835414 0.52077,-1.902867 -0.18345,-7.359376 -0.159,-1.232 -0.37965,-3.066432 -0.49033,-4.076518 l -0.20124,-1.836519 1.06259,0.202224 c 1.93165,0.367619 4.24888,1.367152 5.18281,2.2356 0.50612,0.470634 1.22612,1.517088 1.6,2.325456 0.67804,1.465984 0.67978,1.548205 0.67978,32.029757 0,24.06159 -0.0879,30.85009 -0.41347,31.9242 -0.56732,1.87186 -1.99279,3.38907 -4.23845,4.51124 -1.04057,0.51998 -2.28156,1.25188 -2.75775,1.62646 -0.74761,0.58806 -0.82435,0.79962 -0.56213,1.54957 0.25792,0.73765 0.51183,0.88356 1.68495,0.96826 0.75969,0.0548 2.69039,-0.12515 4.29044,-0.4 3.73547,-0.64167 12.04262,-0.64946 17.99641,-0.0169 8.3606,0.88829 11.04,0.57809 11.04,-1.27812 0,-1.47224 -0.76649,-1.83089 -4.73149,-2.21389 -2.27241,-0.2195 -4.74105,-1.59897 -5.96744,-3.33459 -1.49442,-2.11493 -2.1111,-4.03363 -2.4291,-7.55771 -0.42925,-4.75709 -0.39692,-56.710894 0.0366,-58.732114 0.60355,-2.814262 1.45655,-3.462489 6.29148,-4.781171 1.29309,-0.352678 1.36,-0.430125 1.36,-1.574083 0,-0.661734 -0.1728,-1.375955 -0.384,-1.587155 -0.52147,-0.521466 -4.53519,-0.485411 -11.616,0.104342 -9.92638,0.826755 -18.21519,0.594551 -19.59295,-0.548883 -0.28938,-0.24017 -2.37357,-0.28457 -6.73309,-0.143437 -15.361086,0.49729 -26.750968,0.592835 -43.953662,0.368717 l -18.439706,-0.24024 1.105798,-2.76225 C 43.332787,31.161905 47.708176,23.375501 52.222403,17.343716 54.438982,14.381984 60.560419,7.9071526 62.528851,6.442273 63.039722,6.0620915 63.382058,5.6753866 63.289597,5.5829283 63.012675,5.306007 59.128806,6.8864317 55.403818,8.7918093 34.446838,19.511571 20.809987,39.418298 17.145727,64.64 c -1.274094,8.769798 -1.279705,20.629146 -0.01408,29.769546 3.229826,23.326024 14.323253,41.085794 32.513588,52.051914 5.559034,3.35129 13.90281,6.44197 17.501322,6.48281 l 1.38655,0.0157 -2.50655,-2.34528 z M 51.52,118.52538 c -4.184253,-1.12334 -7.735878,-3.39562 -11.550538,-7.38986 -2.615555,-2.73869 -4.798342,-5.74196 -5.728057,-7.88116 C 33.625498,101.8372 32.865238,96.721504 32.331078,90.4 31.984312,86.296192 31.890723,76.439542 32.18801,75.332317 c 0.158691,-0.591034 0.406156,-0.431242 2.155632,1.39192 3.516156,3.664262 8.244723,6.437088 19.968585,11.709558 9.128711,4.105373 11.312253,5.310691 13.39856,7.396019 3.683872,3.682141 4.268941,10.284546 1.339664,15.117826 C 65.21567,117.275 58.184099,120.31448 51.52,118.52538 Z M 68.96,77.392272 C 66.157862,75.478045 60.559648,72.693805 53.939373,69.921846 44.337517,65.901478 41.830931,64.425728 40.034278,61.735219 c -2.117344,-3.170749 -2.3351,-6.913478 -0.612304,-10.524035 0.926708,-1.942147 4.33242,-5.20489 6.590314,-6.313661 1.584045,-0.777869 2.278771,-0.911763 5.211056,-1.004333 3.708013,-0.117056 7.763213,0.449495 11.176656,1.561485 3.342419,1.088855 7.888982,3.358407 8.45335,4.219741 0.454944,0.694333 0.503834,2.401725 0.429981,15.015741 L 71.2,78.922483 Z"
     id="path3723"
     inkscape:connector-curvature="0" />
</svg>
