<?xml version="1.0" encoding="UTF-8" standalone="no"?>
<!-- Created with Inkscape (http://www.inkscape.org/) -->

<svg
   xmlns:dc="http://purl.org/dc/elements/1.1/"
   xmlns:cc="http://creativecommons.org/ns#"
   xmlns:rdf="http://www.w3.org/1999/02/22-rdf-syntax-ns#"
   xmlns:svg="http://www.w3.org/2000/svg"
   xmlns="http://www.w3.org/2000/svg"
   xmlns:sodipodi="http://sodipodi.sourceforge.net/DTD/sodipodi-0.dtd"
   xmlns:inkscape="http://www.inkscape.org/namespaces/inkscape"
   version="1.1"
   id="svg3734"
   width="187.37158"
   height="214.1965"
   viewBox="0 0 187.37158 214.1965"
   sodipodi:docname="QST-INC-logo-color.svg"
   inkscape:version="0.92.4 (5da689c313, 2019-01-14)">
  <metadata
     id="metadata3740">
    <rdf:RDF>
      <cc:Work
         rdf:about="">
        <dc:format>image/svg+xml</dc:format>
        <dc:type
           rdf:resource="http://purl.org/dc/dcmitype/StillImage" />
        <dc:title></dc:title>
      </cc:Work>
    </rdf:RDF>
  </metadata>
  <defs
     id="defs3738" />
  <sodipodi:namedview
     pagecolor="#ffffff"
     bordercolor="#666666"
     borderopacity="1"
     objecttolerance="10"
     gridtolerance="10"
     guidetolerance="10"
     inkscape:pageopacity="0"
     inkscape:pageshadow="2"
     inkscape:window-width="1920"
     inkscape:window-height="1001"
     id="namedview3736"
     showgrid="false"
     inkscape:pagecheckerboard="true"
     inkscape:zoom="1.0991058"
     inkscape:cx="93.650499"
     inkscape:cy="106.94914"
     inkscape:window-x="-9"
     inkscape:window-y="-9"
     inkscape:window-maximized="1"
     inkscape:current-layer="g3744" />
  <g
     id="g3744"
     transform="translate(-0.1095035,-0.11263989)">
    <path
       style="display:inline;fill:#283b96;stroke-width:0.31999999"
       d="m 145.44,214.08 1.28,-0.22918 -1.54973,-0.0454 c -4.65922,-0.13652 -13.2876,-2.73864 -20.28014,-6.11601 -9.75864,-4.7134 -17.41929,-9.85896 -33.85013,-22.73672 -3.52,-2.75882 -7.28513,-5.61628 -8.366957,-6.34992 -7.286777,-4.94146 -15.789293,-6.17228 -24.811936,-3.59174 -3.965881,1.13426 -9.47216,3.73775 -15.301107,7.2347 -2.253162,1.35173 -5.120272,2.193 -6.485328,1.90292 C 34.439939,183.80126 33.92,183.14609 33.92,181.43356 c 0,-1.89073 0.909546,-3.19356 2.22952,-3.19356 2.757331,0 9.181562,-2.96148 15.318042,-7.06139 6.0859,-4.06612 17.652438,-13.61005 17.652438,-14.5656 0,-0.60767 -0.743216,-0.87371 -4.8,-1.71824 -5.456602,-1.13594 -13.387997,-3.93475 -19.056672,-6.72466 C 21.441486,136.44586 5.1803654,114.82294 1.4356585,89.891094 1.1740463,88.149309 0.93956563,86.111264 0.9145903,85.362106 L 0.86918061,84 0.6643921,85.28 C 0.5088279,86.25233 0.39863197,85.653325 0.20594269,82.787952 -0.07465388,78.615357 0.31194184,69.782035 0.66407904,72.32 l 0.19979699,1.44 0.048062,-1.362106 C 1.0655586,68.044192 2.7452363,60.238038 4.8283136,54.19689 11.750726,34.121139 28.277808,16.66878 48.719213,7.8487395 57.247584,4.1689238 69.366803,1.1275717 76.361069,0.91193802 L 77.92,0.86387603 76.48,0.6648648 C 75.389645,0.51417507 76.080211,0.4036113 79.32409,0.20951 83.970966,-0.06854131 93.465098,0.30472587 90.88,0.66383712 l -1.44,0.20003891 1.558931,0.048062 C 95.72945,1.0577802 104.77979,2.9206963 111.36,5.103047 124.21683,9.3670611 134.42439,15.662768 144.03325,25.254889 156.1251,37.325683 163.21103,51.131168 165.97299,68 c 0.81549,4.980659 0.8126,16.810195 -0.005,21.76 -2.72242,16.47528 -9.49945,29.99561 -20.99208,41.87966 -14.27612,14.76232 -33.70373,23.61793 -55.242122,25.18077 l -5.093472,0.36959 -4.8,2.57428 c -5.205107,2.79156 -10.865734,6.10629 -11.76,6.88638 -0.308,0.26868 -0.56,0.69165 -0.56,0.93994 0,0.37619 0.679956,0.41563 4.08,0.23664 5.002599,-0.26335 10.027364,0.33158 16.158413,1.91314 6.535197,1.68581 9.735821,2.84669 32.721591,11.8683 15.58284,6.11606 20.64731,7.4387 29.63445,7.73937 10.7539,0.35979 17.76844,-1.83487 27.80555,-8.69957 2.376,-1.62502 4.78084,-3.19172 5.34411,-3.48154 1.35109,-0.69521 2.85494,-0.68002 3.27025,0.033 0.26019,0.44672 0.33269,0.4629 0.3584,0.08 0.0219,-0.32653 0.12015,-0.27537 0.30724,0.16 0.52394,1.21927 0.25051,5.56311 -0.29466,4.68101 -0.11322,-0.1832 -0.75563,0.92063 -1.42758,2.45295 -2.92731,6.6755 -7.2851,13.40545 -11.71776,18.09633 -6.0894,6.44412 -13.39633,10.31141 -20.8,11.00866 -2.17639,0.20497 -2.28074,0.24486 -1.12,0.42813 0.704,0.11115 -0.736,0.2021 -3.2,0.2021 -2.78128,0 -3.99465,-0.0869 -3.2,-0.22918 z M 68.415478,152.77172 c 0.07386,-0.51695 -1.522387,-2.12178 -7.049417,-7.08734 -8.065261,-7.24593 -12.2952,-11.52556 -15.191882,-15.37034 -2.109267,-2.79965 -5.71783,-8.63705 -5.483872,-8.87102 0.07676,-0.0768 0.852839,0.0807 1.724624,0.3499 5.327495,1.64505 13.090615,2.25774 17.749927,1.40087 1.524291,-0.28033 5.885513,-0.3258 16.429417,-0.1713 16.108378,0.23603 22.875229,-0.092 23.943915,-1.16068 0.8435,-0.8435 0.72281,-2.09004 -0.30153,-3.11438 -0.722503,-0.72251 -1.278983,-0.92387 -3.05627,-1.10596 -4.451056,-0.45603 -7.48886,-2.19266 -9.082352,-5.19213 -2.127417,-4.0045 -2.11863,-3.87684 -2.252124,-32.715378 C 85.758102,60.764534 85.826394,53.2216 86.097798,51.914269 86.818477,48.442781 88.731091,47.61393 96.16,47.553718 c 3.68656,-0.02989 4.30567,0.04466 5.44,0.654928 2.3017,1.23832 3.63156,2.880804 4.35171,5.374724 1.5912,5.510345 1.69731,5.761932 2.61344,6.19656 0.96033,0.455596 1.87465,0.294553 2.63296,-0.463751 0.62233,-0.622333 0.62306,-3.89616 0.002,-8.436179 -0.66144,-4.834259 -0.65968,-4.854467 0.4,-4.605158 3.51386,0.826697 5.56717,2.597113 6.15271,5.305024 0.26638,1.23192 0.34004,10.028192 0.26746,31.940134 l -0.10017,30.24 -0.71794,1.34321 c -0.63949,1.19639 -3.08907,3.29679 -3.84488,3.29679 -0.15812,0 -0.96017,0.44557 -1.78235,0.99016 -1.20968,0.80125 -1.49486,1.16754 -1.49486,1.92 0,1.17285 1.01436,2.21015 2.16,2.20882 0.484,-6.4e-4 2.176,-0.23645 3.76,-0.52419 3.96724,-0.72067 12.90629,-0.70732 19.61542,0.0293 7.88902,0.86615 10.30458,0.43241 10.30458,-1.85029 0,-1.74933 -0.51733,-2.1139 -3.68471,-2.59666 -3.6373,-0.55439 -4.30898,-0.82317 -6.03659,-2.41562 -1.77305,-1.63434 -2.70728,-3.79085 -3.09213,-7.1377 -0.45978,-3.99845 -0.35195,-58.95053 0.11874,-60.509806 0.49318,-1.633815 1.51022,-2.345117 4.56748,-3.194436 2.16415,-0.601206 2.56198,-0.822272 2.82483,-1.569664 0.41014,-1.166227 -0.0821,-2.484393 -1.15198,-3.084905 -0.75459,-0.423539 -1.99673,-0.393994 -11.50513,0.273657 -11.91308,0.836503 -15.69767,0.765338 -18.92466,-0.355852 C 107.05393,39.894195 106.97746,39.892253 98.08,40.304726 88.821786,40.73392 49.834282,40.829114 43.592458,40.437763 39.765654,40.19783 39.920269,40.703869 42.138787,35.67999 46.858448,24.992222 53.462589,15.384516 60.651302,8.747975 63.911933,5.7377933 64.368646,4.9242326 62.64,5.2054227 60.941203,5.4817578 55.062298,8.1982883 51.390643,10.403537 30.492755,22.955121 18.247666,43.794256 15.97819,70.669738 c -0.48034,5.688268 -0.21594,17.94527 0.49777,23.07551 1.988017,14.290102 6.732238,26.493192 14.175059,36.461112 2.307192,3.08994 7.833986,8.80523 10.948981,11.3224 6.763898,5.4658 15.67177,9.98799 22.803971,11.57672 2.737891,0.60988 3.890387,0.514 4.011507,-0.33376 z M 50.88,117.81296 c -3.931645,-1.31069 -7.532928,-3.72586 -10.861629,-7.28425 -2.631385,-2.81296 -5.353395,-6.97303 -5.754134,-8.7941 -0.839786,-3.8162 -1.381517,-10.030213 -1.536861,-17.628732 l -0.16793,-8.214121 1.691101,1.587689 c 3.805149,3.572461 9.852138,6.980756 21.793815,12.283751 9.224291,4.096275 11.468128,5.642985 13.153836,9.067145 0.966727,1.963698 1.041802,2.348488 1.041802,5.339528 0,3.07916 -0.05361,3.3318 -1.198787,5.6489 -1.497469,3.02993 -4.501648,5.97004 -7.580602,7.41895 -1.867811,0.87897 -2.472982,0.99813 -5.460611,1.07525 -2.583434,0.0667 -3.766774,-0.0489 -5.12,-0.50001 z M 68.64,76.614397 C 66.199376,74.920701 61.658397,72.686186 54.08,69.44975 43.44623,64.908483 41.495872,63.665923 39.749693,60.32 c -1.20664,-2.312093 -1.220807,-5.971322 -0.03292,-8.504246 1.673018,-3.56737 6.313866,-7.029159 10.047584,-7.494884 2.106557,-0.262761 7.542439,0.308938 10.767927,1.132477 3.126889,0.798368 8.859564,3.299581 9.627718,4.200653 0.514419,0.603434 0.56,1.774032 0.56,14.38145 0,7.548502 -0.108,13.716617 -0.24,13.706918 -0.132,-0.0097 -0.96,-0.517283 -1.84,-1.127971 z"
       id="path3746"
       inkscape:connector-curvature="0" />
  </g>
</svg>
